{"title":"BBC.Horizon.2011.2012.S48E02.Seeing.Stars_x264.aac.mp4.720p.subt","uid":6608139,"size":1136643286,"categoryP":"video","categoryS":"hd___tv_shows","magnet":"?xt=urn:btih:c7ee442d77507f2023966c372cf11dfd200967d5&amp;dn=BBC.Horizon.2011.2012.S48E02.Seeing.Stars_x264.aac.mp4.720p.subt&amp;tr=udp%3A%2F%2Ftracker.openbittorrent.com%3A80&amp;tr=udp%3A%2F%2Fopen.demonii.com%3A1337&amp;tr=udp%3A%2F%2Ftracker.coppersurfer.tk%3A6969&amp;tr=udp%3A%2F%2Fexodus.desync.com%3A6969","seeders":1,"leechers":0,"uploader":"aularon","files":-1,"time":1313492420,"description":"- - -\nSynopsis\n- - -\n\nAround the world, a new generation of astronomers are hunting for the most mysterious objects in the universe. Young stars, black holes, even other forms of life.\n\nThey have created a dazzling new set of super-telescopes that promise to rewrite the story of the heavens.\n\nThis film follows the men and women who are pushing the limits of science and engineering in some of the most extreme environments on earth. But most strikingly of all, no-one really knows what they will find out there.\n\n\n- - -\nURL\n- - -\n   &lt;a href=&quot;\nhttp://www.bbc.co.uk/programmes/b013pnv4&quot; rel=&quot;nofollow&quot; target=&quot;_NEW&quot;&gt;\nhttp://www.bbc.co.uk/programmes/b013pnv4&lt;/a&gt;\n\n\n- - -\nTechnical Details\n- - -General\nComplete name                    : BBC.Horizon.2011.2012.S48E02.Seeing.Stars/Horizon_-_2011-2012_2._Seeing_Stars_b013pnv4_default.mp4\nFormat                           : MPEG-4\nFormat profile                   : Base Media\nCodec ID                         : isom\nFile size                        : 1.06 GiB\nDuration                         : 59mn 15s\nOverall bit rate                 : 2 557 Kbps\nMovie name                       : Horizon: 2011-2012: Seeing Stars\nAlbum                            : Horizon\nTrack name/Position              : 2\nTrack name/Total                 : 0\nPerformer                        : Horizon\nGenre                            : Factual,Science &amp; Nature\nRecorded date                    : 2011-08-15T21:00:00+01:00\nWriting application              : Lavf53.6.0\nCover                            : Yes\nComment                          : Recorded using get_iplayer, by Aularon.\nrtng                             : 2\nstik                             : 1\ndesc                             : Horizon follows the astronomers pushing the limits of science and engineering with a new generation of super-telescopes in the hunt for mysterious objects in the universe.\ntvnn                             : BBC HD\ntvsh                             : Horizon\ntven                             : b013pnv4\ncatg                             : Factual,Science &amp; Nature\ntves                             : 2\n\nVideo\nID                               : 1\nFormat                           : AVC\nFormat/Info                      : Advanced Video Codec\nFormat profile                   : &lt;a class=&quot;__cf_email__&quot; href=&quot;/cdn-cgi/l/email-protection&quot; data-cfemail=&quot;1850717f7058542c3629&quot;&gt;[email&amp;#160;protected]&lt;/a&gt;&lt;script cf-hash='f9e31' type=&quot;text/javascript&quot;&gt;\n/* &lt;![CDATA[ */!function(){try{var t=&quot;currentScript&quot;in document?document.currentScript:function(){for(var t=document.getElementsByTagName(&quot;script&quot;),e=t.length;e--;)if(t[e].getAttribute(&quot;cf-hash&quot;))return t[e]}();if(t&amp;&amp;t.previousSibling){var e,r,n,i,c=t.previousSibling,a=c.getAttribute(&quot;data-cfemail&quot;);if(a){for(e=&quot;&quot;,r=parseInt(a.substr(0,2),16),n=2;a.length-n;n+=2)i=parseInt(a.substr(n,2),16)^r,e+=String.fromCharCode(i);e=document.createTextNode(e),c.parentNode.replaceChild(e,c)}}}catch(u){}}();/* ]]&gt; */&lt;/script&gt;\nFormat settings, CABAC           : Yes\nFormat settings, ReFrames        : 6 frames\nCodec ID                         : avc1\nCodec ID/Info                    : Advanced Video Coding\nDuration                         : 59mn 15s\nBit rate mode                    : Variable\nBit rate                         : 2 457 Kbps\nMaximum bit rate                 : 3 500 Kbps\nWidth                            : 1 280 pixels\nHeight                           : 720 pixels\nDisplay aspect ratio             : 16:9\nFrame rate mode                  : Constant\nFrame rate                       : 25.000 fps\nStandard                         : PAL\nColor space                      : YUV\nChroma subsampling               : 4:2:0\nBit depth                        : 8 bits\nScan type                        : Progressive\nBits/(Pixel*Frame)               : 0.107\nStream size                      : 1.02 GiB (96%)\n\nAudio\nID                               : 2\nFormat                           : AAC\nFormat/Info                      : Advanced Audio Codec\nFormat profile                   : HE-AAC / LC\nCodec ID                         : 40\nDuration                         : 59mn 15s\nBit rate mode                    : Constant\nBit rate                         : 96.0 Kbps\nChannel(s)                       : 2 channels\nChannel positions                : Front: L R\nSampling rate                    : 48.0 KHz / 24.0 KHz\nCompression mode                 : Lossy\nStream size                      : 40.1 MiB (4%)\n","torrent":{"xt":"urn:btih:c7ee442d77507f2023966c372cf11dfd200967d5","amp;dn":"BBC.Horizon.2011.2012.S48E02.Seeing.Stars_x264.aac.mp4.720p.subt","amp;tr":["udp%3A%2F%2Ftracker.openbittorrent.com%3A80","udp%3A%2F%2Fopen.demonii.com%3A1337","udp%3A%2F%2Ftracker.coppersurfer.tk%3A6969","udp%3A%2F%2Fexodus.desync.com%3A6969"],"infoHash":"c7ee442d77507f2023966c372cf11dfd200967d5","infoHashBuffer":{"type":"Buffer","data":[199,238,68,45,119,80,127,32,35,150,108,55,44,241,29,253,32,9,103,213]},"announce":[],"urlList":[]}}